<svg version="1.2" xmlns="http://www.w3.org/2000/svg" viewBox="0 0 200 250" width="200" height="250">
	<title>Proyecto nuevo</title>
	<style>
		.s0 { fill: #f9f9f9;stroke: #142533;stroke-linecap: round;stroke-linejoin: round } 
		.s1 { fill: #142533;stroke: #f9f9f9;stroke-linecap: round;stroke-linejoin: round } 
		.s2 { fill: none;stroke: #142533;stroke-linecap: round;stroke-linejoin: round } 
		.s3 { fill: #142533 } 
	</style>
	<path id="Layer" class="s0" d="m112.8 157.8l35.5-34.3 1.6-1.8c1.7 5.4 1.2 12.4-2.4 19.5-1.4 2.9-4.7 5.9-7.1 8.4l-9.6 9.4z"/>
	<path id="Layer" class="s1" d="m95.5 149.8l8.7 7.4 36.2 2.6-10.6-7.3z"/>
	<path id="Layer" class="s1" d="m169.7 12.3l-39.9 140-34.3-2.5 40.1-136.9c0.1-0.4 0.5-0.7 1-0.7z"/>
	<path id="Layer" class="s1" d="m169.7 12.3l10.7 7.2-40 140.3-10.6-7.3z"/>
	<path id="Layer" class="s1" d="m156.9 86.6l-1.5 0.2c-0.5 0-0.9 0.4-1.1 1l-4.2 13.4c-0.2 0.6 0.1 1.2 0.5 1.5l0.6 0.4c0.2 0.2 0.6 0.2 0.8 0.1l1.2-0.5-0.7-1.1-0.6-0.7z"/>
	<path id="Layer" class="s1" d="m151.8 101l4.2-13.5c0.2-0.7 1.1-1.1 1.8-0.6 0.5 0.3 0.7 1 0.5 1.5l-4.3 13.8c-0.2 0.6-0.9 0.9-1.4 0.4l-0.2-0.2c-0.5-0.3-0.8-0.9-0.6-1.4z"/>
	<path id="Layer" class="s1" d="m171.8 31.5l-1.5 0.2c-0.6 0-1 0.4-1.2 1l-4.1 13.4c-0.2 0.6 0 1.2 0.5 1.5l0.5 0.4c0.2 0.2 0.7 0.2 0.9 0.1l1.1-0.5-0.7-1.1-0.5-0.7z"/>
	<path id="Layer" class="s1" d="m166.6 45.8l4.1-13.4c0.2-0.8 1.2-1.1 1.8-0.6 0.6 0.3 0.7 0.9 0.5 1.5l-4.2 13.8c-0.2 0.6-1 0.8-1.4 0.4l-0.2-0.2c-0.6-0.2-0.8-0.8-0.6-1.5z"/>
	<path id="Layer" class="s1" d="m154.1 33l-15.7-0.4-17.1 59.1 15.3 1.7z"/>
	<path id="Layer" class="s0" d="m19.3 199.8l89.7-88.5c0 0 8.7-7.7 17.6-5 9 2.7 16.7 14.6 7 29.9-1.6 2.7-4.7 5.9-7.1 8.4l-90.7 89.3z"/>
	<path id="Layer" class="s0" d="m113.2 157.7l-77.3 74.2c-0.8 0.7-0.5 2 0.5 2.4l11.5 4.3c0.5 0.2 1.1 0.1 1.5-0.2l81.4-79.1z"/>
	<path id="Layer" class="s0" d="m126.9 133c4.2-4.9 3.9-12.1-0.7-16-4.5-4-11.6-3.2-15.9 1.7-4.2 4.8-3.9 12 0.6 16 4.6 3.9 11.7 3.2 16-1.7z"/>
	<path id="Layer" class="s0" d="m125.1 131.4c3.5-4 3.4-9.8-0.2-12.9-3.6-3.1-9.3-2.3-12.8 1.7-3.5 4-3.4 9.8 0.2 12.9 3.6 3.1 9.3 2.4 12.8-1.7z"/>
	<path id="Layer" fill-rule="evenodd" class="s2" d="m41.9 226.3l7 12.2"/>
	<path id="Layer" class="s3" d="m41.2 194.1l-3.8 3.8 3 5.8 5.1-5.1-2.2-4.3c-0.5-0.8-1.3-1-2.1-0.2z"/>
	<path id="Layer" class="s3" d="m36.3 199.1l-0.7 0.7c-0.7 0.7-1 1.9-0.5 2.8l0.3 0.7 2-2z"/>
	<path id="Layer" class="s3" d="m38.1 202.7l-2 1.9 1.2 2.2 1.9-1.9z"/>
	<path id="Layer" class="s3" d="m46.3 199.9l-2 2 1.1 2.3 0.7-0.7c0.7-0.8 1-2 0.5-2.8z"/>
	<path id="Layer" class="s3" d="m43 203.1l-1.9 2 1.1 2.2 2-2z"/>
	<path id="Layer" class="s3" d="m39.9 206.3l-1.9 2 0.3 0.7c0.5 0.9 1.3 0.9 2.2 0.2l0.6-0.7z"/>
	<path id="Layer" class="s3" d="m47.9 188.4l-0.7 0.8 4.1 8.1 4.1-4.1-0.4-0.6-3.3 3.2z"/>
	<path id="Layer" fill-rule="evenodd" class="s3" d="m58.3 185.5c0.1 0.1 0.2 0.4 0.2 0.4l-3.9 3.9c0.8 1.5 2.1 1.3 3.1 0.3q0.9-1 1.2-2.3l0.7 0.3c-0.3 1.1-0.8 2.1-1.5 2.7l-0.1 0.2c-1.5 1.3-3.2 1.2-4.1-0.3l-0.1-0.2c-1-2-0.4-4.3 0.9-5.7 1.5-1.4 2.8-0.9 3.6 0.7zm-0.8 0.3c-0.7-1.1-1.7-1.1-2.4-0.3-0.8 0.9-1.3 2.3-0.9 3.5z"/>
	<path id="Layer" fill-rule="evenodd" class="s3" d="m65.2 183.5l-0.6 0.7-0.4-0.6c-0.1-0.1-0.2-0.2-0.2-0.4 0 0.2 0.1 1.7-1.2 2.9-1.3 1.3-2.8 0.9-3.7-0.9-1-1.9-0.6-4 0.7-5.4 0-0.1 0.1-0.1 0.1-0.1 0.7-0.6 1.5-0.9 2.2-0.5-0.1-0.1-0.2-0.3-0.3-0.4l-1.5-2.8 0.8-0.7zm-1.2-0.4q0 0 0 0.1 0-0.1 0-0.1zm-1.1-2c-0.5-1.3-1.6-1.9-2.8-0.8-0.8 0.9-1.2 2.6-0.4 4 0.7 1.5 1.9 1.8 2.8 0.8 0.9-0.8 1.4-2.3 0.4-4z"/>
	<path id="Layer" fill-rule="evenodd" class="s3" d="m67.1 173.9l-0.1-0.2-0.3-0.6 0.6-0.7 3 5.7c0.9 1.8 0.1 3.7-1.1 5-0.5 0.6-1.3 1-1.9 1.2l-0.1-0.8q0.8-0.4 1.6-1.1c1.1-1 1.6-2.3 0.9-3.5l-0.3-0.6c-0.1-0.1-0.1-0.3-0.2-0.4 0 1-0.3 1.8-1.1 2.6-1.3 1.4-2.8 1.1-3.8-0.7-0.9-1.8-0.6-3.8 0.7-5.2 1.4-1.3 2.1-0.7 2.1-0.7zm1.2 1.9c-0.9-1.7-1.9-1.4-2.8-0.5-1 1-1.1 2.4-0.4 3.7 0.7 1.5 1.7 1.7 2.8 0.7 0.8-0.8 1.2-2.1 0.4-3.9z"/>
	<path id="Layer" fill-rule="evenodd" class="s3" d="m74.1 169.7c0.1 0.1 0.2 0.4 0.2 0.4l-3.9 3.9c0.8 1.5 2 1.3 3.1 0.3q0.9-1 1.2-2.3l0.6 0.3c-0.2 1.1-0.7 2.1-1.5 2.8l-0.1 0.1c-1.4 1.3-3.2 1.3-4.1-0.3l-0.1-0.2c-0.9-1.9-0.3-4.2 1-5.5 1.4-1.5 2.8-1 3.6 0.5zm-1 0.5c-0.7-1.2-1.6-1.2-2.4-0.4-0.8 0.9-1.3 2.3-0.8 3.6z"/>
	<path id="Layer" class="s3" d="m75.5 164.2c-0.8 0.8-1 2.1-0.9 3.1 0 0-0.1-0.2-0.2-0.5l-0.6-1.1-0.7 0.7 3 5.8 0.7-0.7-1.2-2.4c-0.3-0.4-0.4-0.8-0.5-1.3-0.3-1 0-2.2 0.7-3 0.1-0.1 0.2-0.1 0.3-0.2l-0.3-0.7c-0.1 0.2-0.2 0.2-0.3 0.3z"/>
</svg>